<?xml version="1.0" encoding="utf-8"?>
<!-- Generator: Adobe Illustrator 25.4.1, SVG Export Plug-In . SVG Version: 6.00 Build 0)  -->
<svg version="1.1" id="Layer_1" xmlns="http://www.w3.org/2000/svg" xmlns:xlink="http://www.w3.org/1999/xlink" x="0px" y="0px"
	 viewBox="0 0 289.8 290" style="enable-background:new 0 0 289.8 290;" xml:space="preserve">
<style type="text/css">
	.st0{fill:#FEC514;}
	.st1{fill:#F04E98;}
	.st2{fill:#0077CC;}
	.st3{fill:#00BFB3;}
</style>
<g>
	<rect x="210" y="0.2" class="st0" width="79.8" height="79.8"/>
	<rect y="208.4" class="st1" width="81.6" height="81.6"/>
	<path class="st2" d="M0,0.2v96.3v96.3h53.5c23.7,0,42.8-19.2,42.8-42.8V96.5h54.3c23.4,0,42.4-19,42.4-42.4V0.2H0z"/>
	<path class="st3" d="M236.2,97.3c-23.7,0-42.8,19.2-42.8,42.8v53.5h-53.9c-23.7,0-42.8,19.2-42.8,42.8V290h193.1v-96.3V97.3H236.2z
		"/>
	<polygon class="st1" points="154.5,135.6 154.5,116.2 135,116.2 135,135.6 115.6,135.6 115.6,155.1 135,155.1 135,174.5 
		154.5,174.5 154.5,155.1 173.9,155.1 173.9,135.6 	"/>
</g>
</svg>
