<?xml version="1.0" encoding="utf-8"?>
<!-- Generator: Adobe Illustrator 25.4.1, SVG Export Plug-In . SVG Version: 6.00 Build 0)  -->
<svg version="1.1" id="Layer_1" xmlns="http://www.w3.org/2000/svg" xmlns:xlink="http://www.w3.org/1999/xlink" x="0px" y="0px"
	 viewBox="0 0 405.3 403.3" style="enable-background:new 0 0 405.3 403.3;" xml:space="preserve">
<style type="text/css">
	.st0{fill:#343741;}
	.st1{fill:#FEC514;}
	.st2{fill:#F04E98;}
	.st3{fill:#0077CC;}
	.st4{fill:#00BFB3;}
</style>
<g>
	<path class="st0" d="M6.5,376.6v-15.3H0.6v-7.7h5.9v-9.1l9.1-1.8v10.9h8.9v7.7h-8.9v13.9c0,4.6,1.7,6.1,5.1,6.1
		c1.4,0,2.4-0.3,3.2-0.6l0.9,7.2c-1.2,0.5-3.3,0.9-5.9,0.9C11.7,388.8,6.5,385.7,6.5,376.6z"/>
	<path class="st0" d="M38.8,337.5v19.9c1.8-2.6,5.7-4.9,10-4.9c7.4,0,12,5,12,13.5v22h-9.1v-20.3c0-4.8-2.1-7.1-5.8-7.1
		c-4,0-7.2,3.1-7.2,7.7V388h-9.1v-50.5H38.8z"/>
	<path class="st0" d="M91.1,388v-4.3h-0.4c-1.9,3-5.7,5.3-10.5,5.3c-7.4,0-12-5-12-13.4v-22.1h9.1V374c0,4.8,2.2,7.2,5.8,7.2
		c4,0,7.2-3.1,7.2-7.8v-19.8h9.1V388H91.1z"/>
	<path class="st0" d="M150.5,388v-20.7c0-4.4-1.9-6.8-5.6-6.8c-3.9,0-6.8,3.2-6.8,7.6V388H129v-20.7c0-4.4-2-6.8-5.6-6.8
		c-3.8,0-6.7,3.2-6.7,7.6V388h-9.1v-34.4h8.4v4.1h0.1c1.8-2.8,5.7-5.2,10.4-5.2c5.1,0,8.6,2.5,10.2,6.2c2-3.5,6.1-6.2,10.9-6.2
		c7.4,0,11.9,5,11.9,13V388H150.5z"/>
	<path class="st0" d="M187,389.1c-4.1,0-8.8-1.7-11-5.8h-0.2v4.8h-8.4v-50.5h9.1V358c1.6-3,5.2-5.5,10.2-5.5
		c9.1,0,16.2,7.3,16.2,18.3C202.9,381.8,196.1,389.1,187,389.1z M185,360.5c-5.5,0-8.8,4.3-8.8,10.3s3.3,10.3,8.8,10.3
		s8.8-4.5,8.8-10.3C193.8,364.9,190.4,360.5,185,360.5z"/>
	<path class="st0" d="M231.1,388v-20.3c0-4.8-2.1-7.1-5.8-7.1c-4,0-7.2,3.1-7.2,7.7V388H209v-34.4h8.4v4.3h0.1
		c1.9-3.1,5.8-5.4,10.5-5.4c7.4,0,12,5,12,13.5v22H231.1z"/>
	<path class="st0" d="M269.1,388v-3.4h-0.3c-1.7,2.6-5.8,4.4-9.9,4.4c-7.1,0-12-4.5-12-10.7c0-7.1,5.6-11.4,14.7-11.4
		c3,0,5.9,0.6,7.1,1.3v-2.5c0-3.8-2.2-5.9-5.8-5.9c-3.1,0-5,1.5-5.8,3.4l-9.1-0.7c2-6.3,7.6-9.9,15.5-9.9c9.2,0,14.3,4.9,14.3,13.7
		V388H269.1z M261.5,382c3.9,0,7.3-2.4,7.3-5v-2.2c-1-0.9-3.5-1.5-6.2-1.5c-4.2,0-6.6,1.7-6.6,4.4C256,380.2,258,382,261.5,382z"/>
	<path class="st0" d="M285.4,346.3v-8.7h9.1v8.7H285.4z M285.4,388v-34.4h9.1V388H285.4z"/>
	<path class="st0" d="M311.8,337.5V388h-9.1v-50.5H311.8z"/>
	<path class="st0" d="M318.1,379.6l8.4-1.6c0.7,2.7,3.4,4.4,6.6,4.4c3.1,0,4.9-1.7,4.9-4.2c0-6.7-18.4-0.8-18.4-14.7
		c0-6.6,5.3-11,13.2-11c7.1,0,12.6,3.5,14,8.8l-8.4,1.8c-0.4-2.2-2.6-3.8-5.3-3.8c-2.8,0-4.4,1.5-4.4,3.5c0,6.8,18.4,0.9,18.4,14.7
		c0,7-5.7,11.5-14.1,11.5C325.4,389.1,320,385.7,318.1,379.6z"/>
	<path class="st0" d="M375.2,388v-11H351v-8.5l17.6-31h15.8v31h6.3v8.5h-6.3v11H375.2z M375.2,368.6V343h-0.3l-14.7,25.5h15V368.6z"
		/>
	<path class="st0" d="M389.2,402v-7.9c0.4,0.1,1.2,0.1,1.7,0.1c4.1,0,5.3-2.2,5.3-6.8v-33.9h9.1v34.8c0,9.5-4.5,13.9-12.6,13.9
		C391.6,402.3,390.3,402.2,389.2,402z M396.2,346.3v-8.7h9.1v8.7H396.2z"/>
</g>
<g>
	<rect x="269.9" y="0.2" class="st1" width="79.8" height="79.8"/>
	<rect x="59.9" y="208.4" class="st2" width="81.6" height="81.6"/>
	<path class="st3" d="M59.9,0.2v96.3v96.3h53.5c23.7,0,42.8-19.2,42.8-42.8V96.5h54.3c23.4,0,42.4-19,42.4-42.4V0.2H59.9z"/>
	<path class="st4" d="M296.1,97.3c-23.7,0-42.8,19.2-42.8,42.8v53.5h-53.9c-23.7,0-42.8,19.2-42.8,42.8V290h193.1v-96.3V97.3H296.1z
		"/>
	<polygon class="st2" points="214.4,135.6 214.4,116.2 194.9,116.2 194.9,135.6 175.5,135.6 175.5,155.1 194.9,155.1 194.9,174.5 
		214.4,174.5 214.4,155.1 233.8,155.1 233.8,135.6 	"/>
</g>
</svg>
